<svg xmlns="http://www.w3.org/2000/svg" width="488" height="112" class="svgbob"><style>.svgbob line, .svgbob path, .svgbob circle, .svgbob rect, .svgbob polygon {
    stroke: #ffc777;
    stroke-width: 2;
    stroke-opacity: 1;
    fill-opacity: 1;
    stroke-linecap: round;
    stroke-linejoin: miter;
}
.svgbob text {
    white-space: pre;
    fill: #ffc777;
    font-family: Iosevka Fixed, monospace;
    font-size: 14px;
}
.svgbob rect.backdrop {
    stroke: none;
    fill: none;
}
.svgbob .broken {
    stroke-dasharray: 8;
}
.svgbob .filled {
    fill: #ffc777;
}
.svgbob .bg_filled {
    fill: white;
    stroke-width: 1;
}
.svgbob .nofill {
    fill: white;
}
.svgbob .end_marked_arrow {
    marker-end: url(#arrow);
}
.svgbob .start_marked_arrow {
    marker-start: url(#arrow);
}
.svgbob .end_marked_diamond {
    marker-end: url(#diamond);
}
.svgbob .start_marked_diamond {
    marker-start: url(#diamond);
}
.svgbob .end_marked_circle {
    marker-end: url(#circle);
}
.svgbob .start_marked_circle {
    marker-start: url(#circle);
}
.svgbob .end_marked_open_circle {
    marker-end: url(#open_circle);
}
.svgbob .start_marked_open_circle {
    marker-start: url(#open_circle);
}
.svgbob .end_marked_big_open_circle {
    marker-end: url(#big_open_circle);
}
.svgbob .start_marked_big_open_circle {
    marker-start: url(#big_open_circle);
}<!--separator--></style><defs><marker id="arrow" viewBox="-2 -2 8 8" refX="4" refY="2" markerWidth="7" markerHeight="7" orient="auto-start-reverse"><polygon points="0,0 0,4 4,2 0,0"></polygon></marker><marker id="diamond" viewBox="-2 -2 8 8" refX="4" refY="2" markerWidth="7" markerHeight="7" orient="auto-start-reverse"><polygon points="0,2 2,0 4,2 2,4 0,2"></polygon></marker><marker id="circle" viewBox="0 0 8 8" refX="4" refY="4" markerWidth="7" markerHeight="7" orient="auto-start-reverse"><circle cx="4" cy="4" r="2" class="filled"></circle></marker><marker id="open_circle" viewBox="0 0 8 8" refX="4" refY="4" markerWidth="7" markerHeight="7" orient="auto-start-reverse"><circle cx="4" cy="4" r="2" class="bg_filled"></circle></marker><marker id="big_open_circle" viewBox="0 0 8 8" refX="4" refY="4" markerWidth="7" markerHeight="7" orient="auto-start-reverse"><circle cx="4" cy="4" r="3" class="bg_filled"></circle></marker></defs><rect class="backdrop" x="0" y="0" width="488" height="112"></rect><rect x="0" y="0" width="8" height="16" class="solid filled" rx="0"></rect><rect x="8" y="0" width="8" height="16" class="solid filled" rx="0"></rect><rect x="40" y="0" width="8" height="16" class="solid filled" rx="0"></rect><rect x="48" y="0" width="8" height="16" class="solid filled" rx="0"></rect><rect x="72" y="0" width="8" height="16" class="solid filled" rx="0"></rect><rect x="80" y="0" width="8" height="16" class="solid filled" rx="0"></rect><rect x="88" y="0" width="8" height="16" class="solid filled" rx="0"></rect><rect x="96" y="0" width="8" height="16" class="solid filled" rx="0"></rect><rect x="104" y="0" width="8" height="16" class="solid filled" rx="0"></rect><rect x="128" y="0" width="8" height="16" class="solid filled" rx="0"></rect><rect x="136" y="0" width="8" height="16" class="solid filled" rx="0"></rect><rect x="144" y="0" width="8" height="16" class="solid filled" rx="0"></rect><rect x="152" y="0" width="8" height="16" class="solid filled" rx="0"></rect><rect x="160" y="0" width="8" height="16" class="solid filled" rx="0"></rect><rect x="168" y="0" width="8" height="16" class="solid filled" rx="0"></rect><rect x="176" y="0" width="8" height="16" class="solid filled" rx="0"></rect><rect x="0" y="16" width="8" height="16" class="solid filled" rx="0"></rect><rect x="8" y="16" width="8" height="16" class="solid filled" rx="0"></rect><rect x="32" y="16" width="8" height="16" class="solid filled" rx="0"></rect><rect x="40" y="16" width="8" height="16" class="solid filled" rx="0"></rect><rect x="64" y="16" width="8" height="16" class="solid filled" rx="0"></rect><rect x="72" y="16" width="8" height="16" class="solid filled" rx="0"></rect><rect x="104" y="16" width="8" height="16" class="solid filled" rx="0"></rect><rect x="112" y="16" width="8" height="16" class="solid filled" rx="0"></rect><rect x="152" y="16" width="8" height="16" class="solid filled" rx="0"></rect><rect x="160" y="16" width="8" height="16" class="solid filled" rx="0"></rect><rect x="168" y="16" width="8" height="16" class="solid filled" rx="0"></rect><rect x="0" y="32" width="8" height="16" class="solid filled" rx="0"></rect><rect x="8" y="32" width="8" height="16" class="solid filled" rx="0"></rect><rect x="16" y="32" width="8" height="16" class="solid filled" rx="0"></rect><rect x="24" y="32" width="8" height="16" class="solid filled" rx="0"></rect><rect x="32" y="32" width="8" height="16" class="solid filled" rx="0"></rect><rect x="64" y="32" width="8" height="16" class="solid filled" rx="0"></rect><rect x="72" y="32" width="8" height="16" class="solid filled" rx="0"></rect><rect x="80" y="32" width="8" height="16" class="solid filled" rx="0"></rect><rect x="88" y="32" width="8" height="16" class="solid filled" rx="0"></rect><rect x="96" y="32" width="8" height="16" class="solid filled" rx="0"></rect><rect x="104" y="32" width="8" height="16" class="solid filled" rx="0"></rect><rect x="112" y="32" width="8" height="16" class="solid filled" rx="0"></rect><rect x="144" y="32" width="8" height="16" class="solid filled" rx="0"></rect><rect x="152" y="32" width="8" height="16" class="solid filled" rx="0"></rect><rect x="160" y="32" width="8" height="16" class="solid filled" rx="0"></rect><rect x="0" y="48" width="8" height="16" class="solid filled" rx="0"></rect><rect x="8" y="48" width="8" height="16" class="solid filled" rx="0"></rect><rect x="32" y="48" width="8" height="16" class="solid filled" rx="0"></rect><rect x="40" y="48" width="8" height="16" class="solid filled" rx="0"></rect><rect x="64" y="48" width="8" height="16" class="solid filled" rx="0"></rect><rect x="72" y="48" width="8" height="16" class="solid filled" rx="0"></rect><rect x="104" y="48" width="8" height="16" class="solid filled" rx="0"></rect><rect x="112" y="48" width="8" height="16" class="solid filled" rx="0"></rect><rect x="136" y="48" width="8" height="16" class="solid filled" rx="0"></rect><rect x="144" y="48" width="8" height="16" class="solid filled" rx="0"></rect><rect x="152" y="48" width="8" height="16" class="solid filled" rx="0"></rect><rect x="0" y="64" width="8" height="16" class="solid filled" rx="0"></rect><rect x="8" y="64" width="8" height="16" class="solid filled" rx="0"></rect><rect x="40" y="64" width="8" height="16" class="solid filled" rx="0"></rect><rect x="48" y="64" width="8" height="16" class="solid filled" rx="0"></rect><rect x="64" y="64" width="8" height="16" class="solid filled" rx="0"></rect><rect x="72" y="64" width="8" height="16" class="solid filled" rx="0"></rect><rect x="104" y="64" width="8" height="16" class="solid filled" rx="0"></rect><rect x="112" y="64" width="8" height="16" class="solid filled" rx="0"></rect><rect x="128" y="64" width="8" height="16" class="solid filled" rx="0"></rect><rect x="136" y="64" width="8" height="16" class="solid filled" rx="0"></rect><rect x="144" y="64" width="8" height="16" class="solid filled" rx="0"></rect><rect x="152" y="64" width="8" height="16" class="solid filled" rx="0"></rect><rect x="160" y="64" width="8" height="16" class="solid filled" rx="0"></rect><rect x="168" y="64" width="8" height="16" class="solid filled" rx="0"></rect><rect x="176" y="64" width="8" height="16" class="solid filled" rx="0"></rect><rect x="224" y="0" width="8" height="16" class="solid filled" rx="0"></rect><rect x="232" y="0" width="8" height="16" class="solid filled" rx="0"></rect><rect x="296" y="0" width="8" height="16" class="solid filled" rx="0"></rect><rect x="304" y="0" width="8" height="16" class="solid filled" rx="0"></rect><rect x="312" y="0" width="8" height="16" class="solid filled" rx="0"></rect><rect x="320" y="0" width="8" height="16" class="solid filled" rx="0"></rect><rect x="328" y="0" width="8" height="16" class="solid filled" rx="0"></rect><rect x="352" y="0" width="8" height="16" class="solid filled" rx="0"></rect><rect x="360" y="0" width="8" height="16" class="solid filled" rx="0"></rect><rect x="368" y="0" width="8" height="16" class="solid filled" rx="0"></rect><rect x="376" y="0" width="8" height="16" class="solid filled" rx="0"></rect><rect x="384" y="0" width="8" height="16" class="solid filled" rx="0"></rect><rect x="392" y="0" width="8" height="16" class="solid filled" rx="0"></rect><rect x="416" y="0" width="8" height="16" class="solid filled" rx="0"></rect><rect x="424" y="0" width="8" height="16" class="solid filled" rx="0"></rect><rect x="432" y="0" width="8" height="16" class="solid filled" rx="0"></rect><rect x="440" y="0" width="8" height="16" class="solid filled" rx="0"></rect><rect x="448" y="0" width="8" height="16" class="solid filled" rx="0"></rect><rect x="456" y="0" width="8" height="16" class="solid filled" rx="0"></rect><rect x="464" y="0" width="8" height="16" class="solid filled" rx="0"></rect><rect x="224" y="16" width="8" height="16" class="solid filled" rx="0"></rect><rect x="232" y="16" width="8" height="16" class="solid filled" rx="0"></rect><rect x="288" y="16" width="8" height="16" class="solid filled" rx="0"></rect><rect x="296" y="16" width="8" height="16" class="solid filled" rx="0"></rect><rect x="328" y="16" width="8" height="16" class="solid filled" rx="0"></rect><rect x="336" y="16" width="8" height="16" class="solid filled" rx="0"></rect><rect x="352" y="16" width="8" height="16" class="solid filled" rx="0"></rect><rect x="360" y="16" width="8" height="16" class="solid filled" rx="0"></rect><rect x="392" y="16" width="8" height="16" class="solid filled" rx="0"></rect><rect x="400" y="16" width="8" height="16" class="solid filled" rx="0"></rect><rect x="416" y="16" width="8" height="16" class="solid filled" rx="0"></rect><rect x="424" y="16" width="8" height="16" class="solid filled" rx="0"></rect><rect x="224" y="32" width="8" height="16" class="solid filled" rx="0"></rect><rect x="232" y="32" width="8" height="16" class="solid filled" rx="0"></rect><rect x="288" y="32" width="8" height="16" class="solid filled" rx="0"></rect><rect x="296" y="32" width="8" height="16" class="solid filled" rx="0"></rect><rect x="304" y="32" width="8" height="16" class="solid filled" rx="0"></rect><rect x="312" y="32" width="8" height="16" class="solid filled" rx="0"></rect><rect x="320" y="32" width="8" height="16" class="solid filled" rx="0"></rect><rect x="328" y="32" width="8" height="16" class="solid filled" rx="0"></rect><rect x="336" y="32" width="8" height="16" class="solid filled" rx="0"></rect><rect x="352" y="32" width="8" height="16" class="solid filled" rx="0"></rect><rect x="360" y="32" width="8" height="16" class="solid filled" rx="0"></rect><rect x="368" y="32" width="8" height="16" class="solid filled" rx="0"></rect><rect x="376" y="32" width="8" height="16" class="solid filled" rx="0"></rect><rect x="384" y="32" width="8" height="16" class="solid filled" rx="0"></rect><rect x="392" y="32" width="8" height="16" class="solid filled" rx="0"></rect><rect x="416" y="32" width="8" height="16" class="solid filled" rx="0"></rect><rect x="424" y="32" width="8" height="16" class="solid filled" rx="0"></rect><rect x="432" y="32" width="8" height="16" class="solid filled" rx="0"></rect><rect x="440" y="32" width="8" height="16" class="solid filled" rx="0"></rect><rect x="448" y="32" width="8" height="16" class="solid filled" rx="0"></rect><rect x="456" y="32" width="8" height="16" class="solid filled" rx="0"></rect><rect x="464" y="32" width="8" height="16" class="solid filled" rx="0"></rect><rect x="224" y="48" width="8" height="16" class="solid filled" rx="0"></rect><rect x="232" y="48" width="8" height="16" class="solid filled" rx="0"></rect><rect x="288" y="48" width="8" height="16" class="solid filled" rx="0"></rect><rect x="296" y="48" width="8" height="16" class="solid filled" rx="0"></rect><rect x="328" y="48" width="8" height="16" class="solid filled" rx="0"></rect><rect x="336" y="48" width="8" height="16" class="solid filled" rx="0"></rect><rect x="352" y="48" width="8" height="16" class="solid filled" rx="0"></rect><rect x="360" y="48" width="8" height="16" class="solid filled" rx="0"></rect><rect x="392" y="48" width="8" height="16" class="solid filled" rx="0"></rect><rect x="400" y="48" width="8" height="16" class="solid filled" rx="0"></rect><rect x="456" y="48" width="8" height="16" class="solid filled" rx="0"></rect><rect x="464" y="48" width="8" height="16" class="solid filled" rx="0"></rect><rect x="224" y="64" width="8" height="16" class="solid filled" rx="0"></rect><rect x="232" y="64" width="8" height="16" class="solid filled" rx="0"></rect><rect x="240" y="64" width="8" height="16" class="solid filled" rx="0"></rect><rect x="248" y="64" width="8" height="16" class="solid filled" rx="0"></rect><rect x="256" y="64" width="8" height="16" class="solid filled" rx="0"></rect><rect x="264" y="64" width="8" height="16" class="solid filled" rx="0"></rect><rect x="272" y="64" width="8" height="16" class="solid filled" rx="0"></rect><rect x="288" y="64" width="8" height="16" class="solid filled" rx="0"></rect><rect x="296" y="64" width="8" height="16" class="solid filled" rx="0"></rect><rect x="328" y="64" width="8" height="16" class="solid filled" rx="0"></rect><rect x="336" y="64" width="8" height="16" class="solid filled" rx="0"></rect><rect x="352" y="64" width="8" height="16" class="solid filled" rx="0"></rect><rect x="360" y="64" width="8" height="16" class="solid filled" rx="0"></rect><rect x="368" y="64" width="8" height="16" class="solid filled" rx="0"></rect><rect x="376" y="64" width="8" height="16" class="solid filled" rx="0"></rect><rect x="384" y="64" width="8" height="16" class="solid filled" rx="0"></rect><rect x="392" y="64" width="8" height="16" class="solid filled" rx="0"></rect><rect x="416" y="64" width="8" height="16" class="solid filled" rx="0"></rect><rect x="424" y="64" width="8" height="16" class="solid filled" rx="0"></rect><rect x="432" y="64" width="8" height="16" class="solid filled" rx="0"></rect><rect x="440" y="64" width="8" height="16" class="solid filled" rx="0"></rect><rect x="448" y="64" width="8" height="16" class="solid filled" rx="0"></rect><rect x="456" y="64" width="8" height="16" class="solid filled" rx="0"></rect><rect x="464" y="64" width="8" height="16" class="solid filled" rx="0"></rect><g><line x1="16" y1="8" x2="22" y2="8" class="solid"></line><line x1="22" y1="8" x2="22" y2="32" class="solid"></line></g><g><line x1="16" y1="12" x2="18" y2="12" class="solid"></line><line x1="18" y1="12" x2="18" y2="32" class="solid"></line></g><g><line x1="56" y1="8" x2="62" y2="8" class="solid"></line><line x1="62" y1="8" x2="62" y2="28" class="solid"></line><line x1="54" y1="28" x2="62" y2="28" class="solid"></line><line x1="54" y1="28" x2="54" y2="44" class="solid"></line><line x1="46" y1="44" x2="54" y2="44" class="solid"></line><line x1="46" y1="44" x2="46" y2="48" class="solid"></line></g><g><line x1="56" y1="12" x2="58" y2="12" class="solid"></line><line x1="58" y1="12" x2="58" y2="24" class="solid"></line><line x1="50" y1="24" x2="58" y2="24" class="solid"></line><line x1="50" y1="24" x2="50" y2="40" class="solid"></line><line x1="42" y1="40" x2="50" y2="40" class="solid"></line><line x1="42" y1="40" x2="42" y2="48" class="solid"></line></g><g><line x1="112" y1="8" x2="118" y2="8" class="solid"></line><line x1="118" y1="8" x2="118" y2="16" class="solid"></line></g><g><line x1="112" y1="12" x2="114" y2="12" class="solid"></line><line x1="114" y1="12" x2="114" y2="16" class="solid"></line></g><g><line x1="184" y1="8" x2="190" y2="8" class="solid"></line><line x1="190" y1="8" x2="190" y2="28" class="solid"></line><line x1="182" y1="28" x2="190" y2="28" class="solid"></line><line x1="182" y1="28" x2="182" y2="44" class="solid"></line><line x1="174" y1="44" x2="182" y2="44" class="solid"></line><line x1="174" y1="44" x2="174" y2="60" class="solid"></line><line x1="166" y1="60" x2="174" y2="60" class="solid"></line><line x1="166" y1="60" x2="166" y2="64" class="solid"></line></g><g><line x1="184" y1="12" x2="186" y2="12" class="solid"></line><line x1="186" y1="12" x2="186" y2="24" class="solid"></line><line x1="178" y1="24" x2="186" y2="24" class="solid"></line><line x1="178" y1="24" x2="178" y2="40" class="solid"></line><line x1="170" y1="40" x2="178" y2="40" class="solid"></line><line x1="170" y1="40" x2="170" y2="56" class="solid"></line><line x1="162" y1="56" x2="170" y2="56" class="solid"></line><line x1="162" y1="56" x2="162" y2="64" class="solid"></line></g><g><line x1="82" y1="24" x2="104" y2="24" class="solid"></line><line x1="82" y1="24" x2="82" y2="32" class="solid"></line></g><g><line x1="86" y1="28" x2="104" y2="28" class="solid"></line><line x1="86" y1="28" x2="86" y2="32" class="solid"></line></g><g><line x1="120" y1="24" x2="126" y2="24" class="solid"></line><line x1="126" y1="24" x2="126" y2="92" class="solid"></line><line x1="106" y1="80" x2="106" y2="92" class="solid"></line><line x1="106" y1="92" x2="126" y2="92" class="solid"></line></g><g><line x1="120" y1="28" x2="122" y2="28" class="solid"></line><line x1="122" y1="28" x2="122" y2="88" class="solid"></line><line x1="110" y1="80" x2="110" y2="88" class="solid"></line><line x1="110" y1="88" x2="122" y2="88" class="solid"></line></g><g><line x1="130" y1="16" x2="130" y2="28" class="solid"></line><line x1="130" y1="28" x2="152" y2="28" class="solid"></line></g><g><line x1="134" y1="16" x2="134" y2="24" class="solid"></line><line x1="134" y1="24" x2="152" y2="24" class="solid"></line></g><g><line x1="18" y1="56" x2="32" y2="56" class="solid"></line><line x1="18" y1="56" x2="18" y2="88" class="solid"></line><line x1="6" y1="80" x2="6" y2="88" class="solid"></line><line x1="6" y1="88" x2="18" y2="88" class="solid"></line></g><g><line x1="22" y1="60" x2="32" y2="60" class="solid"></line><line x1="22" y1="60" x2="22" y2="92" class="solid"></line><line x1="2" y1="80" x2="2" y2="92" class="solid"></line><line x1="2" y1="92" x2="22" y2="92" class="solid"></line></g><g><line x1="48" y1="56" x2="54" y2="56" class="solid"></line><line x1="54" y1="56" x2="54" y2="64" class="solid"></line></g><g><line x1="48" y1="60" x2="50" y2="60" class="solid"></line><line x1="50" y1="60" x2="50" y2="64" class="solid"></line></g><g><line x1="82" y1="56" x2="104" y2="56" class="solid"></line><line x1="82" y1="56" x2="82" y2="88" class="solid"></line><line x1="70" y1="80" x2="70" y2="88" class="solid"></line><line x1="70" y1="88" x2="82" y2="88" class="solid"></line></g><g><line x1="86" y1="60" x2="104" y2="60" class="solid"></line><line x1="86" y1="60" x2="86" y2="92" class="solid"></line><line x1="66" y1="80" x2="66" y2="92" class="solid"></line><line x1="66" y1="92" x2="86" y2="92" class="solid"></line></g><g><line x1="56" y1="72" x2="62" y2="72" class="solid"></line><line x1="62" y1="72" x2="62" y2="92" class="solid"></line><line x1="42" y1="80" x2="42" y2="92" class="solid"></line><line x1="42" y1="92" x2="62" y2="92" class="solid"></line></g><g><line x1="56" y1="76" x2="58" y2="76" class="solid"></line><line x1="58" y1="76" x2="58" y2="88" class="solid"></line><line x1="46" y1="80" x2="46" y2="88" class="solid"></line><line x1="46" y1="88" x2="58" y2="88" class="solid"></line></g><g><line x1="184" y1="72" x2="190" y2="72" class="solid"></line><line x1="190" y1="72" x2="190" y2="92" class="solid"></line><line x1="130" y1="80" x2="130" y2="92" class="solid"></line><line x1="130" y1="92" x2="190" y2="92" class="solid"></line></g><g><line x1="184" y1="76" x2="186" y2="76" class="solid"></line><line x1="186" y1="76" x2="186" y2="88" class="solid"></line><line x1="134" y1="80" x2="134" y2="88" class="solid"></line><line x1="134" y1="88" x2="186" y2="88" class="solid"></line></g><g><line x1="240" y1="8" x2="246" y2="8" class="solid"></line><line x1="246" y1="8" x2="246" y2="64" class="solid"></line></g><g><line x1="240" y1="12" x2="242" y2="12" class="solid"></line><line x1="242" y1="12" x2="242" y2="64" class="solid"></line></g><g><line x1="336" y1="8" x2="342" y2="8" class="solid"></line><line x1="342" y1="8" x2="342" y2="16" class="solid"></line></g><g><line x1="336" y1="12" x2="338" y2="12" class="solid"></line><line x1="338" y1="12" x2="338" y2="16" class="solid"></line></g><g><line x1="400" y1="8" x2="406" y2="8" class="solid"></line><line x1="406" y1="8" x2="406" y2="16" class="solid"></line></g><g><line x1="400" y1="12" x2="402" y2="12" class="solid"></line><line x1="402" y1="12" x2="402" y2="16" class="solid"></line></g><g><line x1="472" y1="8" x2="478" y2="8" class="solid"></line><line x1="478" y1="8" x2="478" y2="28" class="solid"></line><line x1="438" y1="28" x2="478" y2="28" class="solid"></line><line x1="438" y1="28" x2="438" y2="32" class="solid"></line></g><g><line x1="472" y1="12" x2="474" y2="12" class="solid"></line><line x1="474" y1="12" x2="474" y2="24" class="solid"></line><line x1="434" y1="24" x2="474" y2="24" class="solid"></line><line x1="434" y1="24" x2="434" y2="32" class="solid"></line></g><g><line x1="306" y1="24" x2="328" y2="24" class="solid"></line><line x1="306" y1="24" x2="306" y2="32" class="solid"></line></g><g><line x1="310" y1="28" x2="328" y2="28" class="solid"></line><line x1="310" y1="28" x2="310" y2="32" class="solid"></line></g><g><line x1="344" y1="24" x2="350" y2="24" class="solid"></line><line x1="350" y1="24" x2="350" y2="92" class="solid"></line><line x1="330" y1="80" x2="330" y2="92" class="solid"></line><line x1="330" y1="92" x2="350" y2="92" class="solid"></line></g><g><line x1="344" y1="28" x2="346" y2="28" class="solid"></line><line x1="346" y1="28" x2="346" y2="88" class="solid"></line><line x1="334" y1="80" x2="334" y2="88" class="solid"></line><line x1="334" y1="88" x2="346" y2="88" class="solid"></line></g><g><line x1="370" y1="24" x2="392" y2="24" class="solid"></line><line x1="370" y1="24" x2="370" y2="32" class="solid"></line></g><g><line x1="374" y1="28" x2="392" y2="28" class="solid"></line><line x1="374" y1="28" x2="374" y2="32" class="solid"></line></g><g><line x1="408" y1="24" x2="414" y2="24" class="solid"></line><line x1="414" y1="24" x2="414" y2="44" class="solid"></line><line x1="406" y1="44" x2="414" y2="44" class="solid"></line><line x1="406" y1="44" x2="406" y2="48" class="solid"></line></g><g><line x1="408" y1="28" x2="410" y2="28" class="solid"></line><line x1="410" y1="28" x2="410" y2="40" class="solid"></line><line x1="402" y1="40" x2="410" y2="40" class="solid"></line><line x1="402" y1="40" x2="402" y2="48" class="solid"></line></g><g><line x1="472" y1="40" x2="478" y2="40" class="solid"></line><line x1="478" y1="40" x2="478" y2="92" class="solid"></line><line x1="418" y1="80" x2="418" y2="92" class="solid"></line><line x1="418" y1="92" x2="478" y2="92" class="solid"></line></g><g><line x1="472" y1="44" x2="474" y2="44" class="solid"></line><line x1="474" y1="44" x2="474" y2="88" class="solid"></line><line x1="422" y1="80" x2="422" y2="88" class="solid"></line><line x1="422" y1="88" x2="474" y2="88" class="solid"></line></g><g><line x1="306" y1="56" x2="328" y2="56" class="solid"></line><line x1="306" y1="56" x2="306" y2="88" class="solid"></line><line x1="294" y1="80" x2="294" y2="88" class="solid"></line><line x1="294" y1="88" x2="306" y2="88" class="solid"></line></g><g><line x1="310" y1="60" x2="328" y2="60" class="solid"></line><line x1="310" y1="60" x2="310" y2="92" class="solid"></line><line x1="290" y1="80" x2="290" y2="92" class="solid"></line><line x1="290" y1="92" x2="310" y2="92" class="solid"></line></g><g><line x1="370" y1="56" x2="392" y2="56" class="solid"></line><line x1="370" y1="56" x2="370" y2="64" class="solid"></line></g><g><line x1="374" y1="60" x2="392" y2="60" class="solid"></line><line x1="374" y1="60" x2="374" y2="64" class="solid"></line></g><g><line x1="408" y1="56" x2="414" y2="56" class="solid"></line><line x1="414" y1="56" x2="414" y2="76" class="solid"></line><line x1="406" y1="76" x2="414" y2="76" class="solid"></line><line x1="406" y1="76" x2="406" y2="92" class="solid"></line><line x1="354" y1="80" x2="354" y2="92" class="solid"></line><line x1="354" y1="92" x2="406" y2="92" class="solid"></line></g><g><line x1="408" y1="60" x2="410" y2="60" class="solid"></line><line x1="410" y1="60" x2="410" y2="72" class="solid"></line><line x1="402" y1="72" x2="410" y2="72" class="solid"></line><line x1="402" y1="72" x2="402" y2="88" class="solid"></line><line x1="358" y1="80" x2="358" y2="88" class="solid"></line><line x1="358" y1="88" x2="402" y2="88" class="solid"></line></g><g><line x1="418" y1="48" x2="418" y2="60" class="solid"></line><line x1="418" y1="60" x2="456" y2="60" class="solid"></line></g><g><line x1="422" y1="48" x2="422" y2="56" class="solid"></line><line x1="422" y1="56" x2="456" y2="56" class="solid"></line></g><g><line x1="280" y1="72" x2="286" y2="72" class="solid"></line><line x1="286" y1="72" x2="286" y2="92" class="solid"></line><line x1="226" y1="80" x2="226" y2="92" class="solid"></line><line x1="226" y1="92" x2="286" y2="92" class="solid"></line></g><g><line x1="280" y1="76" x2="282" y2="76" class="solid"></line><line x1="282" y1="76" x2="282" y2="88" class="solid"></line><line x1="230" y1="80" x2="230" y2="88" class="solid"></line><line x1="230" y1="88" x2="282" y2="88" class="solid"></line></g></svg>
